<svg xmlns="http://www.w3.org/2000/svg" xmlns:xlink="http://www.w3.org/1999/xlink" style="height: 0; position: absolute">
  <symbol id="codepen" viewBox="0 0 16 16"><path d="M15.988 5.443c-.004-.02-.007-.04-.012-.058l-.01-.033c-.006-.017-.012-.034-.02-.05-.003-.012-.01-.023-.014-.034l-.023-.045-.02-.032-.03-.04-.024-.03c-.01-.013-.022-.026-.034-.038l-.027-.027-.04-.032-.03-.024-.012-.01L8.38.117c-.23-.155-.53-.155-.76 0L.305 4.99.296 5c-.012.007-.022.015-.032.023-.014.01-.027.02-.04.032l-.027.027-.034.037-.024.03-.03.04c-.006.012-.013.022-.02.033l-.023.045-.015.034c-.007.016-.012.033-.018.05l-.01.032c-.005.02-.01.038-.012.058l-.006.03C.002 5.5 0 5.53 0 5.56v4.875c0 .03.002.06.006.09l.007.03c.003.02.006.04.013.058l.01.033c.006.018.01.035.018.05l.015.033c.006.016.014.03.023.047l.02.03c.008.016.018.03.03.042.007.01.014.02.023.03.01.012.02.025.034.036.01.01.018.02.028.026l.04.033.03.023.01.01 7.31 4.876c.116.078.248.117.382.116.134 0 .266-.04.38-.116l7.314-4.875.01-.01c.012-.007.022-.015.032-.023.014-.01.027-.02.04-.032l.027-.027.034-.037.024-.03.03-.04.02-.032.023-.046.015-.033.018-.052.01-.033c.005-.02.01-.038.013-.058 0-.01.003-.02.004-.03.004-.03.006-.06.006-.09V5.564c0-.03-.002-.06-.006-.09l-.007-.03zM8 9.626L5.568 8 8 6.374 10.432 8 8 9.626zM7.312 5.18l-2.98 1.993-2.406-1.61 5.386-3.59v3.206zM3.095 8l-1.72 1.15v-2.3L3.095 8zm1.237.828l2.98 1.993v3.208l-5.386-3.59 2.406-1.61zm4.355 1.993l2.98-1.993 2.407 1.61-5.387 3.59v-3.206zM12.905 8l1.72-1.15v2.3L12.905 8zm-1.237-.827L8.688 5.18V1.97l5.386 3.59-2.406 1.61z" fill-rule="nonzero"/></symbol>
  <symbol id="dribbble" viewBox="0 0 16 16"><path d="M8 16c-4.41 0-8-3.59-8-8s3.59-8 8-8 8 3.59 8 8-3.59 8-8 8zm6.747-6.905c-.234-.074-2.115-.635-4.257-.292.894 2.456 1.258 4.456 1.328 4.872 1.533-1.037 2.624-2.68 2.93-4.58zM10.67 14.3c-.102-.6-.5-2.688-1.46-5.18l-.044.014C5.312 10.477 3.93 13.15 3.806 13.4c1.158.905 2.614 1.444 4.194 1.444.947 0 1.85-.194 2.67-.543zm-7.747-1.72c.155-.266 2.03-3.37 5.555-4.51.09-.03.18-.056.27-.08-.173-.39-.36-.778-.555-1.16C4.78 7.85 1.47 7.807 1.17 7.8l-.003.208c0 1.755.665 3.358 1.756 4.57zM1.31 6.61c.307.005 3.122.017 6.318-.832-1.132-2.012-2.353-3.705-2.533-3.952-1.912.902-3.34 2.664-3.784 4.785zM6.4 1.368c.188.253 1.43 1.943 2.548 4 2.43-.91 3.46-2.293 3.582-2.468C11.323 1.827 9.736 1.176 8 1.176c-.55 0-1.087.066-1.6.19zm6.89 2.322c-.145.194-1.29 1.662-3.816 2.694.16.325.31.656.453.99.05.117.1.235.147.352 2.274-.286 4.533.172 4.758.22-.015-1.613-.59-3.094-1.543-4.257z"/></symbol>
  <symbol id="designernews" viewBox="0 0 16 16"><path d="M7.514 7.988c0-2.555-1.57-4.287-4.56-4.287H0v8.6h3.016c2.903 0 4.498-1.75 4.498-4.31zM5.37 8c0 1.844-.946 2.642-2.467 2.642H2.13V5.358h.773C4.36 5.358 5.37 6.193 5.37 8zM16 12.3V3.7h-1.98v4.81L10.853 3.7h-2.07v8.6h1.982V7.152l3.39 5.146H16z"/></symbol>
  <symbol id="facebook" viewBox="0 0 16 16"><path d="M15.117 0H.883C.395 0 0 .395 0 .883v14.234c0 .488.395.883.883.883h7.663V9.804H6.46V7.39h2.086V5.607c0-2.066 1.262-3.19 3.106-3.19.883 0 1.642.064 1.863.094v2.16h-1.28c-1 0-1.195.476-1.195 1.176v1.54h2.39l-.31 2.416h-2.08V16h4.077c.488 0 .883-.395.883-.883V.883C16 .395 15.605 0 15.117 0" fill-rule="nonzero"/></symbol>
  <symbol id="flickr" viewBox="0 0 16 16"><path d="M0 8c0 2.05 1.662 3.71 3.71 3.71 2.05 0 3.713-1.66 3.713-3.71S5.76 4.29 3.71 4.29C1.663 4.29 0 5.95 0 8zm8.577 0c0 2.05 1.662 3.71 3.712 3.71C14.337 11.71 16 10.05 16 8s-1.662-3.71-3.71-3.71c-2.05 0-3.713 1.66-3.713 3.71z"/></symbol>
  <symbol id="github" viewBox="0 0 16 16"><path d="M8 0C3.58 0 0 3.582 0 8c0 3.535 2.292 6.533 5.47 7.59.4.075.547-.172.547-.385 0-.19-.007-.693-.01-1.36-2.226.483-2.695-1.073-2.695-1.073-.364-.924-.89-1.17-.89-1.17-.725-.496.056-.486.056-.486.803.056 1.225.824 1.225.824.714 1.223 1.873.87 2.33.665.072-.517.278-.87.507-1.07-1.777-.2-3.644-.888-3.644-3.953 0-.873.31-1.587.823-2.147-.083-.202-.358-1.015.077-2.117 0 0 .672-.215 2.2.82.638-.178 1.323-.266 2.003-.27.68.004 1.364.092 2.003.27 1.527-1.035 2.198-.82 2.198-.82.437 1.102.163 1.915.08 2.117.513.56.823 1.274.823 2.147 0 3.073-1.87 3.75-3.653 3.947.287.246.543.735.543 1.48 0 1.07-.01 1.933-.01 2.195 0 .215.144.463.55.385C13.71 14.53 16 11.534 16 8c0-4.418-3.582-8-8-8"/></symbol>
  <symbol id="hackernews" viewBox="0 0 16 16"><path d="M0 0v16h16V0H0zm8.92 8.96v3H7.25v-3l-2.75-5h1.96l1.66 3.48L9.7 3.96h1.88l-2.66 5z"/></symbol>
  <symbol id="instagram" viewBox="0 0 16 16"><path d="M8 0C5.827 0 5.555.01 4.702.048 3.85.088 3.27.222 2.76.42c-.526.204-.973.478-1.417.923-.445.444-.72.89-.923 1.417-.198.51-.333 1.09-.372 1.942C.008 5.555 0 5.827 0 8s.01 2.445.048 3.298c.04.852.174 1.433.372 1.942.204.526.478.973.923 1.417.444.445.89.72 1.417.923.51.198 1.09.333 1.942.372.853.04 1.125.048 3.298.048s2.445-.01 3.298-.048c.852-.04 1.433-.174 1.942-.372.526-.204.973-.478 1.417-.923.445-.444.72-.89.923-1.417.198-.51.333-1.09.372-1.942.04-.853.048-1.125.048-3.298s-.01-2.445-.048-3.298c-.04-.852-.174-1.433-.372-1.942-.204-.526-.478-.973-.923-1.417-.444-.445-.89-.72-1.417-.923-.51-.198-1.09-.333-1.942-.372C10.445.008 10.173 0 8 0zm0 1.44c2.136 0 2.39.01 3.233.048.78.036 1.203.166 1.485.276.374.145.64.318.92.598.28.28.453.546.598.92.11.282.24.705.276 1.485.038.844.047 1.097.047 3.233s-.01 2.39-.048 3.233c-.036.78-.166 1.203-.276 1.485-.145.374-.318.64-.598.92-.28.28-.546.453-.92.598-.282.11-.705.24-1.485.276-.844.038-1.097.047-3.233.047s-2.39-.01-3.233-.048c-.78-.036-1.203-.166-1.485-.276-.374-.145-.64-.318-.92-.598-.28-.28-.453-.546-.598-.92-.11-.282-.24-.705-.276-1.485C1.45 10.39 1.44 10.136 1.44 8s.01-2.39.048-3.233c.036-.78.166-1.203.276-1.485.145-.374.318-.64.598-.92.28-.28.546-.453.92-.598.282-.11.705-.24 1.485-.276C5.61 1.45 5.864 1.44 8 1.44zm0 2.452c-2.27 0-4.108 1.84-4.108 4.108 0 2.27 1.84 4.108 4.108 4.108 2.27 0 4.108-1.84 4.108-4.108 0-2.27-1.84-4.108-4.108-4.108zm0 6.775c-1.473 0-2.667-1.194-2.667-2.667 0-1.473 1.194-2.667 2.667-2.667 1.473 0 2.667 1.194 2.667 2.667 0 1.473-1.194 2.667-2.667 2.667zm5.23-6.937c0 .53-.43.96-.96.96s-.96-.43-.96-.96.43-.96.96-.96.96.43.96.96z"/></symbol>
  <symbol id="linkedin" viewBox="0 0 16 16"><path d="M13.632 13.635h-2.37V9.922c0-.886-.018-2.025-1.234-2.025-1.235 0-1.424.964-1.424 1.96v3.778h-2.37V6H8.51V7.04h.03c.318-.6 1.092-1.233 2.247-1.233 2.4 0 2.845 1.58 2.845 3.637v4.188zM3.558 4.955c-.762 0-1.376-.617-1.376-1.377 0-.758.614-1.375 1.376-1.375.76 0 1.376.617 1.376 1.375 0 .76-.617 1.377-1.376 1.377zm1.188 8.68H2.37V6h2.376v7.635zM14.816 0H1.18C.528 0 0 .516 0 1.153v13.694C0 15.484.528 16 1.18 16h13.635c.652 0 1.185-.516 1.185-1.153V1.153C16 .516 15.467 0 14.815 0z" fill-rule="nonzero"/></symbol>
  <symbol id="medium" viewBox="0 0 16 16"><path d="M11.824 12.628l-.276.45.798.398 2.744 1.372c.15.076.294.11.418.11.278 0 .467-.177.467-.492V5.883l-4.15 6.745zm4.096-8.67c-.004-.003 0-.01-.003-.012l-4.825-2.412c-.06-.03-.123-.038-.187-.044-.016 0-.03-.01-.047-.01-.184 0-.368.092-.467.254l-.24.39-.5.814-1.89 3.08 1.89 3.076.5.813.5.812.59.95 4.71-7.64c.02-.03.01-.06-.02-.08zm-6.27 7.045L7.17 6.97l-.295-.477-.294-.477-.25-.416v4.867l3.32 1.663.5.25.5.25-.5-.813-.5-.813zM.737 1.68L.59 1.608c-.085-.042-.166-.062-.24-.062-.206 0-.35.16-.35.427v10.162c0 .272.2.594.442.716l4.145 2.08c.107.06.208.08.3.08.257 0 .438-.2.438-.53V4.01c0-.02-.012-.04-.03-.047L.738 1.68z"/></symbol>
  <symbol id="pinterest" viewBox="0 0 16 16"><path d="M8 0C3.582 0 0 3.582 0 8c0 3.39 2.108 6.285 5.084 7.45-.07-.633-.133-1.604.028-2.295.146-.625.938-3.977.938-3.977s-.24-.48-.24-1.188c0-1.11.646-1.943 1.448-1.943.683 0 1.012.513 1.012 1.127 0 .687-.436 1.713-.662 2.664-.19.797.4 1.445 1.185 1.445 1.42 0 2.514-1.498 2.514-3.662 0-1.915-1.376-3.254-3.342-3.254-2.276 0-3.61 1.707-3.61 3.472 0 .687.263 1.424.593 1.825.066.08.075.15.057.23-.06.252-.196.796-.223.907-.035.146-.115.178-.268.107-.998-.465-1.624-1.926-1.624-3.1 0-2.524 1.834-4.84 5.287-4.84 2.774 0 4.932 1.977 4.932 4.62 0 2.757-1.74 4.977-4.153 4.977-.81 0-1.572-.422-1.833-.92l-.5 1.902c-.18.695-.667 1.566-.994 2.097.75.232 1.545.357 2.37.357 4.417 0 8-3.582 8-8s-3.583-8-8-8z" fill-rule="nonzero"/></symbol>
  <symbol id="rss" viewBox="0 0 16 16"><path d="M12.8 16C12.8 8.978 7.022 3.2 0 3.2V0c8.777 0 16 7.223 16 16h-3.2zM2.194 11.61c1.21 0 2.195.985 2.195 2.196 0 1.21-.985 2.194-2.196 2.194C.984 16 0 15.017 0 13.806c0-1.21.983-2.195 2.194-2.195zM10.606 16h-3.11c0-4.113-3.383-7.497-7.496-7.497v-3.11c5.818 0 10.606 4.79 10.606 10.607z"/></symbol>
  <symbol id="reddit" viewBox="0 0 16 16"><path d="M1.473 9.368c-.04.185-.06.374-.06.566 0 2.3 2.94 4.173 6.554 4.173 3.613 0 6.553-1.872 6.553-4.173 0-.183-.02-.364-.055-.54l-.01-.022c-.013-.036-.02-.073-.02-.11-.2-.784-.745-1.497-1.533-2.072-.03-.01-.058-.026-.084-.047-.017-.013-.03-.028-.044-.043-1.198-.824-2.91-1.34-4.807-1.34-1.88 0-3.576.506-4.772 1.315-.01.012-.02.023-.033.033-.026.022-.056.04-.087.05-.805.576-1.364 1.293-1.572 2.086 0 .038-.01.077-.025.114l-.005.01zM8 13.003c-1.198 0-2.042-.26-2.58-.8-.116-.116-.116-.305 0-.422.117-.11.307-.11.424 0 .42.42 1.125.63 2.155.63 1.03 0 1.73-.2 2.15-.62.11-.11.3-.11.42 0 .11.12.11.31 0 .43-.54.54-1.38.8-2.58.8zM5.592 7.945c-.61 0-1.12.51-1.12 1.12 0 .608.51 1.102 1.12 1.102.61 0 1.103-.494 1.103-1.102 0-.61-.494-1.12-1.103-1.12zm4.83 0c-.61 0-1.12.51-1.12 1.12 0 .608.51 1.102 1.12 1.102.61 0 1.103-.494 1.103-1.102 0-.61-.494-1.12-1.103-1.12zM13.46 6.88c.693.556 1.202 1.216 1.462 1.94.3-.225.48-.578.48-.968 0-.67-.545-1.214-1.214-1.214-.267 0-.52.087-.728.243zM1.812 6.64c-.67 0-1.214.545-1.214 1.214 0 .363.16.7.43.927.268-.72.782-1.37 1.478-1.92-.202-.14-.443-.22-.694-.22zm6.155 8.067c-3.944 0-7.152-2.14-7.152-4.77 0-.183.016-.363.046-.54-.53-.33-.86-.91-.86-1.545 0-1 .82-1.812 1.82-1.812.45 0 .87.164 1.2.455 1.24-.796 2.91-1.297 4.75-1.33l1.21-3.69.27.063s.01 0 .01.002l2.82.663c.23-.533.76-.908 1.38-.908.82 0 1.49.67 1.49 1.492 0 .823-.67 1.492-1.49 1.492s-1.49-.67-1.49-1.49L9.4 2.18l-.98 2.99c1.77.07 3.37.57 4.57 1.35.33-.31.764-.48 1.225-.48 1 0 1.814.81 1.814 1.81 0 .66-.36 1.26-.92 1.58.02.17.04.33.04.5-.01 2.63-3.21 4.77-7.16 4.77zM13.43 1.893c-.494 0-.895.4-.895.894 0 .493.4.894.894.894.49 0 .89-.4.89-.89s-.4-.89-.9-.89z"/></symbol>
  <symbol id="skype" viewBox="0 0 16 16"><path d="M8.035 12.6c-2.685 0-3.885-1.322-3.885-2.313 0-.51.374-.865.89-.865 1.15 0 .85 1.653 2.995 1.653 1.096 0 1.703-.597 1.703-1.208 0-.368-.18-.775-.904-.954l-2.387-.597C4.524 7.833 4.175 6.79 4.175 5.812c0-2.034 1.91-2.798 3.704-2.798 1.65 0 3.6.916 3.6 2.136 0 .523-.452.827-.97.827-.98 0-.798-1.36-2.773-1.36-.98 0-1.523.444-1.523 1.08 0 .636.774.84 1.446.993l1.767.392c1.936.433 2.427 1.566 2.427 2.633 0 1.652-1.266 2.886-3.82 2.886m7.4-3.264l-.014.084-.028-.16c.015.024.028.05.042.076.082-.45.125-.912.125-1.373 0-1.023-.2-2.014-.595-2.948-.38-.902-.925-1.712-1.62-2.407-.692-.696-1.5-1.242-2.4-1.623C10.015.59 9.025.39 8.005.39c-.48 0-.963.045-1.43.135H6.57l.08.04-.16-.023.08-.016C5.927.183 5.205 0 4.472 0 3.278 0 2.155.466 1.31 1.313.465 2.16 0 3.286 0 4.483c0 .763.195 1.512.563 2.175l.013-.083.028.16c-.015-.026-.027-.052-.04-.077-.076.43-.115.867-.115 1.305 0 1.022.2 2.014.593 2.948.38.903.925 1.713 1.62 2.408.693.695 1.5 1.242 2.4 1.623.932.397 1.92.597 2.94.597.445 0 .89-.04 1.325-.118l-.077-.043.162.028-.084.014c.67.378 1.426.58 2.2.58 1.194 0 2.317-.466 3.162-1.313.845-.846 1.31-1.972 1.31-3.17 0-.765-.197-1.517-.566-2.18" fill-rule="nonzero"/></symbol>
  <symbol id="tumblr" viewBox="0 0 16 16"><path d="M9.708 16c-3.396 0-4.687-2.504-4.687-4.274V6.498H3.403V4.432C5.83 3.557 6.412 1.368 6.55.12c.01-.086.077-.12.115-.12H9.01v4.076h3.2v2.422H8.997v4.98c.01.667.25 1.58 1.472 1.58h.067c.424-.012.994-.136 1.29-.278l.77 2.283c-.288.424-1.594.916-2.77.936h-.12z" fill-rule="nonzero"/></symbol>
  <symbol id="twitch" viewBox="0 0 16 16"><g fill-rule="nonzero"><path d="M1.393 0L.35 2.783v11.13h3.824V16h2.088l2.085-2.088h3.13L15.65 9.74V0H1.394zm1.39 1.39H14.26v7.653l-2.435 2.435H8l-2.085 2.085v-2.085H2.783V1.39z"/><path d="M6.61 8.348H8V4.175H6.61v4.173zm3.824 0h1.39V4.175h-1.39v4.173z"/></g></symbol>
  <symbol id="twitter" viewBox="0 0 16 16"><path d="M16 3.038c-.59.26-1.22.437-1.885.517.677-.407 1.198-1.05 1.443-1.816-.634.375-1.337.648-2.085.795-.598-.638-1.45-1.036-2.396-1.036-1.812 0-3.282 1.468-3.282 3.28 0 .258.03.51.085.75C5.152 5.39 2.733 4.084 1.114 2.1.83 2.583.67 3.147.67 3.75c0 1.14.58 2.143 1.46 2.732-.538-.017-1.045-.165-1.487-.41v.04c0 1.59 1.13 2.918 2.633 3.22-.276.074-.566.114-.865.114-.21 0-.416-.02-.617-.058.418 1.304 1.63 2.253 3.067 2.28-1.124.88-2.54 1.404-4.077 1.404-.265 0-.526-.015-.783-.045 1.453.93 3.178 1.474 5.032 1.474 6.038 0 9.34-5 9.34-9.338 0-.143-.004-.284-.01-.425.64-.463 1.198-1.04 1.638-1.7z" fill-rule="nonzero"/></symbol>
  <symbol id="vimeo" viewBox="0 0 16 16"><path d="M15.992 4.275c-.07 1.56-1.16 3.697-3.263 6.41-2.176 2.832-4.017 4.248-5.522 4.248-.933 0-1.722-.862-2.367-2.588L3.55 7.6c-.48-1.724-.993-2.587-1.542-2.587-.12 0-.538.252-1.255.755L0 4.796C.79 4.1 1.568 3.406 2.335 2.71c1.053-.912 1.844-1.39 2.37-1.44 1.246-.12 2.012.733 2.3 2.56.31 1.97.526 3.194.647 3.673.36 1.634.754 2.45 1.185 2.45.335 0 .838-.53 1.51-1.59.67-1.06 1.028-1.866 1.076-2.42.096-.915-.263-1.374-1.077-1.374-.383 0-.778.087-1.185.262.788-2.58 2.29-3.834 4.508-3.762 1.644.048 2.42 1.116 2.324 3.205z" fill-rule="nonzero"/></symbol>
  <symbol id="youtube" viewBox="0 0 16 16"><path d="M0 7.345c0-1.294.16-2.59.16-2.59s.156-1.1.636-1.587c.608-.637 1.408-.617 1.764-.684C3.84 2.36 8 2.324 8 2.324s3.362.004 5.6.166c.314.038.996.04 1.604.678.48.486.636 1.588.636 1.588S16 6.05 16 7.346v1.258c0 1.296-.16 2.59-.16 2.59s-.156 1.102-.636 1.588c-.608.638-1.29.64-1.604.678-2.238.162-5.6.166-5.6.166s-4.16-.037-5.44-.16c-.356-.067-1.156-.047-1.764-.684-.48-.487-.636-1.587-.636-1.587S0 9.9 0 8.605v-1.26zm6.348 2.73V5.58l4.323 2.255-4.32 2.24h-.002z"/></symbol>
  <symbol id="link" viewBox="0 0 16 16"><path d="M5.86 12.7l-.81.8c-.7.7-1.84.7-2.54 0a1.75 1.75 0 0 1 0-2.5l2.98-2.96c.61-.61 1.77-1.52 2.62-.68a1 1 0 1 0 1.4-1.4c-1.44-1.43-3.57-1.17-5.42.67L1.1 9.6a3.72 3.72 0 0 0 0 5.32 3.78 3.78 0 0 0 5.34 0l.8-.8a1 1 0 1 0-1.39-1.42zm9.03-11.5c-1.55-1.53-3.7-1.6-5.14-.19l-1 1a1 1 0 1 0 1.39 1.41l1-1c.75-.74 1.72-.43 2.35.2a1.75 1.75 0 0 1 0 2.5l-3.17 3.15c-1.46 1.45-2.14.77-2.43.48a1 1 0 0 0-1.4 1.4c.67.67 1.43 1 2.23 1 .98 0 2.01-.5 3-1.47l3.17-3.15a3.72 3.72 0 0 0 0-5.32z"/></symbol>
  <symbol id="email" viewBox="0 0 16 11"><path fill-rule="evenodd" d="M1.33 0h13.34L8 5 1.33 0zM16 0v11H0V0l8 6 8-6z"/></symbol>
  <symbol id="nav" viewBox="0 0 16 11"><path d="M0 12h16v-2H0v2zm0-5h16V5H0v2zm0-7v2h16V0H0z"/></symbol>
  <symbol id="huggingface" height="16" width="16" viewBox="0 0 16 16" fill="none"><path d="M496.592 369.699C500.563 381.093 499.61 393.227 494.315 403.778C490.503 411.48 485.05 417.441 478.379 422.769C470.331 429.099 460.324 434.48 448.253 439.65C433.852 445.77 416.274 451.52 408.226 453.63C387.63 458.958 367.829 462.334 347.762 462.493C319.066 462.756 294.34 456.004 276.762 438.753C267.656 439.861 258.443 440.494 249.178 440.494C240.389 440.494 231.706 439.967 223.076 438.912C205.445 456.057 180.825 462.756 152.234 462.493C132.168 462.334 112.366 458.958 91.7177 453.63C83.7229 451.52 66.145 445.77 51.7439 439.65C39.6723 434.48 29.6656 429.099 21.6708 422.769C14.9467 417.441 9.49334 411.48 5.68127 403.778C0.439661 393.227 -0.566304 381.093 3.45755 369.699C-0.248631 360.994 -1.20165 351.024 1.71035 339.998C3.03399 334.987 5.20476 330.344 7.95792 326.229C7.37552 324.067 6.89901 321.851 6.58134 319.424C4.56941 304.97 9.59923 291.781 19.0765 281.547C23.7357 276.43 28.7655 272.895 34.0071 270.627C30.1421 254.273 28.1302 237.445 28.1302 220.247C28.1302 98.5969 127.085 0 249.178 0C291.111 0 330.343 11.6058 363.805 31.8633C369.84 35.5561 375.77 39.5126 381.436 43.7329C384.242 45.8431 387.048 48.006 389.748 50.2744C392.501 52.49 395.201 54.8112 397.796 57.1851C405.632 64.3069 412.991 71.9562 419.715 80.133C421.992 82.8235 424.163 85.6194 426.28 88.4681C430.569 94.1128 434.54 99.9685 438.193 106.035C443.752 115.109 448.623 124.604 452.859 134.469C455.665 141.064 458.101 147.816 460.271 154.727C463.501 165.067 465.99 175.723 467.684 186.696C468.213 190.336 468.69 194.028 469.06 197.721C469.802 205.107 470.225 212.598 470.225 220.247C470.225 237.234 468.213 253.904 464.454 269.994C470.278 272.262 475.784 275.955 480.92 281.547C490.397 291.781 495.427 305.022 493.415 319.477C493.098 321.851 492.621 324.067 492.039 326.229C494.792 330.344 496.963 334.987 498.286 339.998C501.198 351.024 500.245 360.994 496.592 369.699Z" fill="white"/>
<path d="M433.839 221.75C433.839 120.838 351.531 39.0323 250 39.0323C148.469 39.0323 66.1613 120.838 66.1613 221.75C66.1613 322.662 148.469 404.468 250 404.468C351.531 404.468 433.839 322.662 433.839 221.75ZM45 221.75C45 109.222 136.782 18 250 18C363.218 18 455 109.222 455 221.75C455 334.278 363.218 425.5 250 425.5C136.782 425.5 45 334.278 45 221.75Z" fill="black"/>
<path d="M250 405.5C352.173 405.5 435 323.232 435 221.75C435 120.268 352.173 38 250 38C147.827 38 65 120.268 65 221.75C65 323.232 147.827 405.5 250 405.5Z" fill="white"/>
<path d="M202.198 404.174C216.789 383.118 215.755 367.316 195.735 347.627C175.715 327.943 164.062 299.145 164.062 299.145C164.062 299.145 159.709 282.419 149.794 283.958C139.88 285.497 132.6 310.492 153.368 325.783C174.135 341.069 149.232 351.456 141.242 337.099C133.252 322.741 111.435 285.831 100.121 278.772C88.8117 271.713 80.8483 275.668 83.5151 290.218C86.182 304.769 133.48 340.036 128.878 347.668C124.276 355.296 108.058 338.7 108.058 338.7C108.058 338.7 57.3079 293.255 46.2587 305.097C35.2096 316.94 54.641 326.863 82.3328 343.359C110.03 359.85 112.177 364.206 108.248 370.446C104.314 376.685 43.1836 325.971 37.4417 347.47C31.705 368.969 99.8291 375.209 95.6247 390.051C91.4203 404.899 47.6372 361.958 38.6823 378.689C29.7221 395.425 100.465 415.088 101.038 415.234C123.889 421.067 181.924 433.426 202.198 404.174Z" fill="white"/>
<path d="M90.9935 255C82.4744 255 74.8603 258.477 69.551 264.784C66.2675 268.69 62.8367 274.986 62.5578 284.414C58.985 283.394 55.5489 282.824 52.3391 282.824C44.183 282.824 36.8163 285.93 31.6069 291.573C24.9137 298.815 21.9407 307.715 23.2351 316.62C23.8508 320.861 25.2768 324.663 27.4079 328.182C22.9142 331.795 19.6044 336.826 18.0047 342.876C16.7524 347.619 15.4685 357.497 22.1722 367.673C21.746 368.337 21.3461 369.027 20.9725 369.733C16.9418 377.336 16.684 385.927 20.2411 393.928C25.6346 406.054 39.0368 415.608 65.0625 425.863C81.2536 432.242 96.0661 436.321 96.1976 436.357C117.603 441.874 136.962 444.677 153.721 444.677C184.525 444.677 206.578 435.301 219.27 416.811C239.697 387.036 236.776 359.803 210.346 333.552C195.717 319.026 185.993 297.607 183.967 292.906C179.884 278.986 169.086 263.513 151.138 263.513H151.133C149.622 263.513 148.096 263.633 146.592 263.869C138.73 265.097 131.858 269.595 126.949 276.361C121.65 269.814 116.504 264.606 111.847 261.667C104.827 257.243 97.813 255 90.9935 255ZM90.9935 275.917C93.6771 275.917 96.9553 277.051 100.57 279.331C111.794 286.406 133.452 323.403 141.382 337.793C144.039 342.614 148.581 344.654 152.669 344.654C160.783 344.654 167.118 336.638 153.411 326.451C132.8 311.124 140.03 286.072 149.87 284.529C150.301 284.461 150.727 284.43 151.138 284.43C160.083 284.43 164.03 299.751 164.03 299.751C164.03 299.751 175.595 328.616 195.465 348.346C215.334 368.08 216.36 383.919 201.879 405.024C192.002 419.415 173.096 421.292 153.721 421.292C133.626 421.292 112.99 417.772 101.445 414.796C100.877 414.65 30.7019 396.255 39.5946 379.48C41.089 376.661 43.5516 375.532 46.6509 375.532C59.1744 375.532 81.9535 394.054 91.746 394.054C93.935 394.054 95.5662 392.371 96.1976 390.112C100.555 374.522 32.6646 369.738 38.3633 348.189C39.3683 344.377 42.094 342.829 45.9248 342.834C62.4737 342.834 99.6021 371.756 107.385 371.756C107.979 371.756 108.405 371.584 108.637 371.218C112.536 364.964 110.74 359.872 83.257 343.343C55.7738 326.808 36.1428 317.588 47.114 305.718C48.3768 304.347 50.1659 303.741 52.3391 303.741C69.0248 303.746 108.447 339.398 108.447 339.398C108.447 339.398 119.087 350.395 125.523 350.395C127.001 350.395 128.259 349.815 129.111 348.382C133.673 340.737 86.7366 305.388 84.0898 290.804C82.2955 280.921 85.3474 275.917 90.9935 275.917Z" fill="black"/>
<path d="M296.9 404.174C282.31 383.118 283.343 367.316 303.363 347.627C323.383 327.943 335.037 299.145 335.037 299.145C335.037 299.145 339.39 282.419 349.304 283.958C359.219 285.497 366.498 310.492 345.731 325.783C324.963 341.069 349.866 351.456 357.856 337.099C365.846 322.741 387.663 285.831 398.978 278.772C410.287 271.713 418.25 275.668 415.583 290.218C412.916 304.769 365.618 340.036 370.22 347.668C374.822 355.296 391.041 338.7 391.041 338.7C391.041 338.7 441.791 293.255 452.84 305.097C463.889 316.94 444.457 326.863 416.766 343.359C389.068 359.85 386.921 364.206 390.85 370.446C394.784 376.685 455.915 325.971 461.657 347.47C467.393 368.969 399.269 375.209 403.474 390.051C407.678 404.899 451.461 361.958 460.416 378.689C469.376 395.425 398.633 415.088 398.06 415.234C375.209 421.067 317.175 433.426 296.9 404.174Z" fill="white"/>
<path d="M408.105 255C416.624 255 424.238 258.477 429.547 264.784C432.831 268.69 436.262 274.986 436.541 284.414C440.113 283.394 443.549 282.824 446.759 282.824C454.915 282.824 462.282 285.93 467.491 291.573C474.185 298.815 477.158 307.715 475.863 316.62C475.248 320.861 473.822 324.663 471.69 328.182C476.184 331.795 479.494 336.826 481.094 342.876C482.346 347.619 483.63 357.497 476.926 367.673C477.352 368.337 477.752 369.027 478.126 369.733C482.157 377.336 482.414 385.927 478.857 393.928C473.464 406.054 460.062 415.608 434.036 425.863C417.845 432.242 403.032 436.321 402.901 436.357C381.495 441.874 362.136 444.677 345.377 444.677C314.573 444.677 292.52 435.301 279.829 416.811C259.402 387.036 262.322 359.803 288.753 333.552C303.381 319.026 313.105 297.607 315.131 292.906C319.214 278.986 330.012 263.513 347.961 263.513H347.966C349.476 263.513 351.002 263.633 352.507 263.869C360.368 265.097 367.24 269.595 372.15 276.361C377.449 269.814 382.595 264.606 387.252 261.667C394.271 257.243 401.285 255 408.105 255ZM408.105 275.917C405.421 275.917 402.143 277.051 398.528 279.331C387.304 286.406 365.646 323.403 357.716 337.793C355.059 342.614 350.518 344.654 346.429 344.654C338.315 344.654 331.98 336.638 345.687 326.451C366.299 311.124 359.069 286.072 349.229 284.529C348.797 284.461 348.371 284.43 347.961 284.43C339.015 284.43 335.069 299.751 335.069 299.751C335.069 299.751 323.503 328.616 303.634 348.346C283.764 368.08 282.738 383.919 297.219 405.024C307.096 419.415 326.002 421.292 345.377 421.292C365.472 421.292 386.108 417.772 397.653 414.796C398.221 414.65 468.397 396.255 459.504 379.48C458.009 376.661 455.547 375.532 452.447 375.532C439.924 375.532 417.145 394.054 407.352 394.054C405.163 394.054 403.532 392.371 402.901 390.112C398.543 374.522 466.434 369.738 460.735 348.189C459.73 344.377 457.004 342.829 453.174 342.834C436.625 342.834 399.496 371.756 391.714 371.756C391.119 371.756 390.693 371.584 390.461 371.218C386.562 364.964 388.358 359.872 415.841 343.343C443.325 326.808 462.956 317.588 451.984 305.718C450.722 304.347 448.932 303.741 446.759 303.741C430.074 303.746 390.651 339.398 390.651 339.398C390.651 339.398 380.011 350.395 373.576 350.395C372.097 350.395 370.84 349.815 369.987 348.382C365.425 340.737 412.362 305.388 415.009 290.804C416.803 280.921 413.751 275.917 408.105 275.917Z" fill="black"/>
<path d="M319.277 228.901C319.277 205.236 288.585 241.304 250.637 241.465C212.692 241.306 182 205.238 182 228.901C182 244.591 189.507 270.109 209.669 285.591C213.681 271.787 235.726 260.729 238.877 262.317C243.364 264.578 243.112 270.844 250.637 276.365C258.163 270.844 257.911 264.58 262.398 262.317C265.551 260.729 287.594 271.787 291.605 285.591C311.767 270.109 319.275 244.591 319.275 228.903L319.277 228.901Z" fill="#0E1116"/>
<path d="M262.4 262.315C257.913 264.576 258.165 270.842 250.639 276.363C243.114 270.842 243.366 264.578 238.879 262.315C235.726 260.727 213.683 271.785 209.672 285.589C219.866 293.417 233.297 298.678 250.627 298.806C250.631 298.806 250.635 298.806 250.641 298.806C250.646 298.806 250.65 298.806 250.656 298.806C267.986 298.68 281.417 293.417 291.611 285.589C287.6 271.785 265.555 260.727 262.404 262.315H262.4Z" fill="#FF323D"/>
<path d="M373 196C382.389 196 390 188.389 390 179C390 169.611 382.389 162 373 162C363.611 162 356 169.611 356 179C356 188.389 363.611 196 373 196Z" fill="black"/>
<path d="M128 196C137.389 196 145 188.389 145 179C145 169.611 137.389 162 128 162C118.611 162 111 169.611 111 179C111 188.389 118.611 196 128 196Z" fill="black"/>
<path d="M313.06 171.596C319.796 173.968 322.476 187.779 329.281 184.171C342.167 177.337 347.06 161.377 340.208 148.524C333.356 135.671 317.354 130.792 304.467 137.626C291.58 144.46 286.688 160.419 293.54 173.272C296.774 179.339 307.039 169.475 313.06 171.596Z" fill="#0E1116"/>
<path d="M188.554 171.596C181.818 173.968 179.138 187.779 172.334 184.171C159.447 177.337 154.555 161.377 161.407 148.524C168.259 135.671 184.26 130.792 197.147 137.626C210.034 144.46 214.926 160.419 208.074 173.272C204.84 179.339 194.575 169.475 188.554 171.596Z" fill="#0E1116"/></symbol>
</svg>
